<svg width="32" height="32" viewBox="0 0 32 32" fill="none" xmlns="http://www.w3.org/2000/svg">
<path d="M3.87893 7.75527C3.61218 7.75527 3.396 7.53902 3.396 7.27233V0.969266C3.396 0.702516 3.61225 0.486328 3.87893 0.486328C4.14562 0.486328 4.36187 0.702578 4.36187 0.969266V7.27227C4.36187 7.53902 4.14562 7.75527 3.87893 7.75527Z" fill="#F9D171"/>
<path d="M4.76295 12.1209H6.78789V6.30273H4.76295C3.20358 6.30273 1.93945 7.56686 1.93945 9.12623V9.29736C1.93939 10.8568 3.20352 12.1209 4.76295 12.1209Z" fill="#4A66A0"/>
<path d="M3.87888 2.90913C4.68221 2.90913 5.33344 2.2579 5.33344 1.45456C5.33344 0.65123 4.68221 0 3.87888 0C3.07555 0 2.42432 0.65123 2.42432 1.45456C2.42432 2.2579 3.07555 2.90913 3.87888 2.90913Z" fill="#F9475E"/>
<path d="M28.1211 7.75527C27.8544 7.75527 27.6382 7.53902 27.6382 7.27233V0.969266C27.6382 0.702516 27.8544 0.486328 28.1211 0.486328C28.3878 0.486328 28.6041 0.702578 28.6041 0.969266V7.27227C28.6041 7.53902 28.3879 7.75527 28.1211 7.75527Z" fill="#F9EE80"/>
<path d="M27.2369 12.1209H25.2119V6.30273H27.2369C28.7962 6.30273 30.0604 7.56686 30.0604 9.12623V9.29736C30.0604 10.8568 28.7963 12.1209 27.2369 12.1209Z" fill="#687DAA"/>
<path d="M20.8484 1.93181V3.87844H11.1519V1.93181C11.1519 0.864812 12.0167 0 13.0837 0H18.9165C19.9835 0 20.8484 0.864812 20.8484 1.93181Z" fill="#F3F5FC"/>
<path d="M14.7934 1.2975V1.9395C14.7934 1.9395 14.5886 2.852 14.3497 3.87844H11.1519V1.93181C11.1519 0.864812 12.0167 0 13.0837 0H15.3948C14.767 0.299375 14.7934 1.2975 14.7934 1.2975Z" fill="#E8ECF9"/>
<path d="M13.5757 13.5752H18.4246V22.3025H13.5757V13.5752Z" fill="#687DAA"/>
<path d="M15.049 16.4853V22.3033H13.5757V14.332C14.3304 15.3939 15.049 16.4853 15.049 16.4853Z" fill="#4A66A0"/>
<path d="M26.1818 26.1514V31.0338C26.1818 31.567 25.7491 31.9997 25.2159 31.9997H18.9092L15.9162 31.1298L13.0906 31.9997H6.78381C6.25062 31.9997 5.81787 31.567 5.81787 31.0338V26.1514C5.81787 22.3561 8.554 19.2007 12.1601 18.5484C12.4189 18.5014 12.6849 18.5646 12.8967 18.7197C13.0449 18.8286 13.2619 18.9516 13.5754 19.0623L13.9489 19.5331L15.0481 19.3547H15.0487C15.3327 19.3798 15.6489 19.3939 15.9999 19.3939C17.8428 19.3939 18.7128 19.005 19.103 18.7197C19.3149 18.5646 19.5808 18.5014 19.8397 18.5484C23.4457 19.2007 26.1818 22.3561 26.1818 26.1514Z" fill="#F3F5FC"/>
<path d="M11.9586 26.0002V31.3597C11.9586 31.3597 11.9785 31.7686 12.4756 31.9997H6.78381C6.25062 31.9997 5.81787 31.567 5.81787 31.0338V26.1514C5.81787 22.3561 8.554 19.2007 12.1601 18.5484C12.4189 18.5014 12.6849 18.5646 12.8967 18.7197C13.2122 18.9509 13.8427 19.2491 15.0481 19.3547C14.9916 19.3772 11.9586 20.5924 11.9586 26.0002Z" fill="#E8ECF9"/>
<path d="M26.1817 5.80302V12.6211C26.1817 14.7551 24.4515 16.4847 22.3181 16.4847H15.0487L13.9598 16.2014L13.5754 16.4847H9.6815C7.54812 16.4847 5.81787 14.7551 5.81787 12.6211V12.1195L7.19718 9.20308L5.81787 6.30277V5.80308C5.81787 3.66908 7.54812 1.93945 9.6815 1.93945H11.1516L12.2856 2.46752L14.7931 1.93945H22.3182C24.4515 1.93939 26.1817 3.66902 26.1817 5.80302Z" fill="#93BCE8"/>
<path d="M15.0487 16.4848H9.6815C7.54812 16.4848 5.81787 14.7551 5.81787 12.6211V5.80308C5.81787 3.66908 7.54812 1.93945 9.6815 1.93945H14.7931C13.0061 2.64777 11.7421 4.39158 11.7421 6.43095V12.3146C11.7421 14.3063 13.2 15.8376 15.0487 16.4848Z" fill="#68A2DF"/>
<path d="M23.2725 9.21263C23.2725 10.4174 22.7844 11.5083 21.9943 12.2978C21.2048 13.0873 20.114 13.576 18.9092 13.576H13.0906C12.6765 13.576 12.276 13.5181 11.8967 13.4105L11.0332 12.8477V6.43595L11.9585 4.99738C12.3191 4.90013 12.699 4.84863 13.0906 4.84863H18.9092C21.3188 4.84863 23.2725 6.80232 23.2725 9.21263Z" fill="#F3F5FC"/>
<path d="M11.7424 12.3149C11.7424 12.698 11.7965 13.0644 11.897 13.4102C10.0675 12.8912 8.72754 11.2079 8.72754 9.21232C8.72754 8.00751 9.21566 6.91601 10.0057 6.12657C10.5389 5.59338 11.2086 5.19738 11.9588 4.99707C11.8184 5.44976 11.7424 5.93145 11.7424 6.43113V12.3149Z" fill="#E8ECF9"/>
<path d="M28.1211 2.90913C28.9244 2.90913 29.5756 2.2579 29.5756 1.45456C29.5756 0.65123 28.9244 0 28.1211 0C27.3177 0 26.6665 0.65123 26.6665 1.45456C26.6665 2.2579 27.3177 2.90913 28.1211 2.90913Z" fill="#FF6E80"/>
<path d="M15.0284 30.0607C15.0284 30.3279 14.812 30.5436 14.5454 30.5436H12.0366C12.0103 30.5436 11.9845 30.5429 11.9587 30.541L11.6689 30.0607L11.9587 29.5713C11.9844 29.5758 12.0102 29.5777 12.0366 29.5777H14.5454C14.812 29.5777 15.0284 29.794 15.0284 30.0607Z" fill="#687DAA"/>
<path d="M11.6952 29.4362C11.7673 29.5084 11.8594 29.5547 11.9586 29.5708V30.5405C11.6005 30.5225 11.267 30.3737 11.012 30.1187L10.6083 29.715C10.5168 29.6235 10.3958 29.5733 10.2663 29.5733H8.50003C8.23347 29.5733 8.01709 29.3575 8.01709 29.0904C8.01709 28.8237 8.23347 28.6074 8.50003 28.6074H10.2663C10.6533 28.6074 11.0172 28.7581 11.2908 29.0318L11.6952 29.4362Z" fill="#4A66A0"/>
<path d="M8.7275 30.0605C9.26304 30.0605 9.69719 29.6263 9.69719 29.0908C9.69719 28.5552 9.26304 28.1211 8.7275 28.1211C8.19196 28.1211 7.75781 28.5552 7.75781 29.0908C7.75781 29.6263 8.19196 30.0605 8.7275 30.0605Z" fill="#F9475E"/>
<path d="M14.3033 28.1196C14.0365 28.1196 13.8203 27.9033 13.8203 27.6366V22.3032C13.8203 22.0365 14.0366 21.8203 14.3033 21.8203C14.57 21.8203 14.7862 22.0366 14.7862 22.3032V27.6366C14.7862 27.9034 14.57 28.1196 14.3033 28.1196Z" fill="#687DAA"/>
<path d="M14.3032 23.2724C14.8387 23.2724 15.2729 22.8382 15.2729 22.3027C15.2729 21.7672 14.8387 21.333 14.3032 21.333C13.7676 21.333 13.3335 21.7672 13.3335 22.3027C13.3335 22.8382 13.7676 23.2724 14.3032 23.2724Z" fill="#FF6E80"/>
<path d="M17.6968 29.5736C17.4301 29.5736 17.2139 29.3574 17.2139 29.0907V23.7574C17.2139 23.4906 17.4301 23.2744 17.6968 23.2744C17.9635 23.2744 18.1797 23.4907 18.1797 23.7574V29.0907C18.1797 29.3574 17.9635 29.5736 17.6968 29.5736Z" fill="#687DAA"/>
<path d="M17.6972 24.7275C18.2328 24.7275 18.6669 24.2933 18.6669 23.7578C18.6669 23.2222 18.2328 22.7881 17.6972 22.7881C17.1617 22.7881 16.7275 23.2222 16.7275 23.7578C16.7275 24.2933 17.1617 24.7275 17.6972 24.7275Z" fill="#FF6E80"/>
<path d="M15.5131 27.6363C15.5131 27.9029 15.2967 28.1192 15.0302 28.1192H11.9586L11.5562 27.6363L11.9586 27.1533H15.0302C15.2967 27.1533 15.5131 27.369 15.5131 27.6363Z" fill="#687DAA"/>
<path d="M11.9587 27.1533V28.1193H11.6367C11.3695 28.1193 11.1538 27.9029 11.1538 27.6363C11.1538 27.3691 11.3696 27.1534 11.6367 27.1534L11.9587 27.1533Z" fill="#4A66A0"/>
<path d="M23.7577 29.0889H21.7335C21.3464 29.0889 20.9826 28.9382 20.709 28.6645L20.3051 28.2606C20.2139 28.1694 20.0926 28.1192 19.9636 28.1192H17.4546C17.1879 28.1192 16.9717 27.9029 16.9717 27.6363C16.9717 27.3696 17.1879 27.1533 17.4546 27.1533H19.9636C20.3506 27.1533 20.7145 27.304 20.9881 27.5777L21.392 27.9816C21.4832 28.0728 21.6045 28.123 21.7335 28.123H23.7577C24.0244 28.123 24.2406 28.3393 24.2406 28.6059C24.2406 28.8726 24.0244 29.0889 23.7577 29.0889Z" fill="#687DAA"/>
<path d="M23.2729 29.5761C23.8085 29.5761 24.2426 29.1419 24.2426 28.6064C24.2426 28.0709 23.8085 27.6367 23.2729 27.6367C22.7374 27.6367 22.3032 28.0709 22.3032 28.6064C22.3032 29.1419 22.7374 29.5761 23.2729 29.5761Z" fill="#FF6E80"/>
<path d="M20.3637 30.544H16.9698C16.703 30.544 16.4868 30.3277 16.4868 30.0611C16.4868 29.7944 16.7031 29.5781 16.9698 29.5781H20.3637C20.6304 29.5781 20.8466 29.7944 20.8466 30.0611C20.8466 30.3277 20.6304 30.544 20.3637 30.544Z" fill="#687DAA"/>
<path d="M18.909 31.9998H13.0908V28.0566C13.0908 27.0211 13.9303 26.1816 14.9658 26.1816H17.034C18.0696 26.1816 18.909 27.0211 18.909 28.0566V31.9998Z" fill="#93BCE8"/>
<path d="M15.2711 6.68365C15.0809 6.18915 14.3739 6.17447 14.1679 6.67134L12.3186 11.4627C12.2226 11.7115 12.3465 11.9911 12.5953 12.0871C12.8441 12.1831 13.1237 12.0593 13.2198 11.8104L13.5599 10.929H15.8603L16.1968 11.809C16.2704 12.0014 16.4536 12.1196 16.648 12.1196C16.9849 12.1196 17.2201 11.7808 17.099 11.464L15.2711 6.68365ZM13.9327 9.96303L14.7154 7.93478L15.491 9.96303H13.9327Z" fill="#687DAA"/>
<path d="M18.5874 6.30469C18.3207 6.30469 18.1045 6.52094 18.1045 6.78763V11.6361C18.1045 11.9029 18.3207 12.1191 18.5874 12.1191C18.8541 12.1191 19.0704 11.9028 19.0704 11.6361V6.78763C19.0704 6.52094 18.8541 6.30469 18.5874 6.30469Z" fill="#687DAA"/>
</svg>
