<svg width="20" height="20" viewBox="0 0 20 20" fill="none" xmlns="http://www.w3.org/2000/svg">
<g clip-path="url(#clip0_15_725)">
<path d="M12.5658 4.9992L12.765 5.0092C13.9567 5.09004 15.6267 5.85337 16.5217 7.1642C16.5872 7.26016 16.6319 7.36875 16.6529 7.483C16.674 7.59726 16.6709 7.71465 16.6439 7.82765C16.6169 7.94065 16.5666 8.04675 16.4962 8.13916C16.4258 8.23156 16.3368 8.30821 16.235 8.3642C16.1933 8.38754 15.925 8.49587 15.8208 8.54504C15.6086 8.64408 15.407 8.76442 15.2192 8.9042C14.7075 9.28837 14.4292 9.74504 14.4342 10.3159C14.4425 11.0534 14.7167 11.5275 15.19 11.8542C15.3633 11.9734 15.5533 12.065 15.745 12.1292C15.85 12.165 16.1 12.2259 16.115 12.2309C16.2766 12.2889 16.4164 12.3955 16.5151 12.536C16.6139 12.6765 16.6668 12.8441 16.6667 13.0159C16.6667 15.2 14.1333 18.3334 12.2617 18.3334C11.6033 18.3334 11.2017 18.2575 10.6092 18.0709L10.5275 18.045C10.1417 17.9234 9.9425 17.885 9.58333 17.885C9.15 17.885 8.86417 17.935 8.31833 18.0825L8.15417 18.1267C7.675 18.2542 7.35083 18.315 6.90417 18.3334C4.61333 18.3334 2.5 14.0892 2.5 10.7734C2.5 7.54837 3.98833 5.0067 6.905 5.0067C7.1525 5.0067 7.40333 5.0442 7.6625 5.11337C7.99833 5.20254 8.3075 5.33004 8.7425 5.5367C9.39833 5.84837 9.5325 5.90337 9.58333 5.90337H9.59667C9.62167 5.90087 9.70333 5.8642 10.4767 5.52254C11.3608 5.13337 12.03 4.9517 12.765 5.0092L12.565 4.9992H12.5658Z" fill="white"/>
<path d="M11.6665 0.833252C11.8875 0.833252 12.0995 0.921049 12.2558 1.07733C12.412 1.23361 12.4998 1.44557 12.4998 1.66659C12.4998 2.32963 12.2364 2.96551 11.7676 3.43435C11.2988 3.90319 10.6629 4.16659 9.99984 4.16659C9.77882 4.16659 9.56686 4.07879 9.41058 3.92251C9.2543 3.76623 9.1665 3.55427 9.1665 3.33325C9.1665 2.67021 9.4299 2.03433 9.89874 1.56548C10.3676 1.09664 11.0035 0.833252 11.6665 0.833252Z" fill="white"/>
</g>
<defs>
<clipPath id="clip0_15_725">
<rect width="20" height="20" fill="white"/>
</clipPath>
</defs>
</svg>
