<svg width="36" height="36" viewBox="0 0 36 36" fill="none" xmlns="http://www.w3.org/2000/svg">
<rect width="36" height="36" rx="18" fill="#576875"/>
<g clip-path="url(#clip0_1_1792)">
<path d="M13 13H12C11.4696 13 10.9609 13.2107 10.5858 13.5858C10.2107 13.9609 10 14.4696 10 15V24C10 24.5304 10.2107 25.0391 10.5858 25.4142C10.9609 25.7893 11.4696 26 12 26H21C21.5304 26 22.0391 25.7893 22.4142 25.4142C22.7893 25.0391 23 24.5304 23 24V23" stroke="#F6F6F6" stroke-opacity="0.9" stroke-width="2" stroke-linecap="round" stroke-linejoin="round"/>
<path d="M26.385 12.5851C26.7788 12.1913 27.0001 11.6571 27.0001 11.1001C27.0001 10.5431 26.7788 10.009 26.385 9.61511C25.9912 9.22126 25.457 9 24.9 9C24.343 9 23.8088 9.22126 23.415 9.61511L15 18.0001V21.0001H18L26.385 12.5851Z" stroke="#F6F6F6" stroke-opacity="0.9" stroke-width="2" stroke-linecap="round" stroke-linejoin="round"/>
<path d="M22 11L25 14" stroke="#F6F6F6" stroke-opacity="0.9" stroke-width="2" stroke-linecap="round" stroke-linejoin="round"/>
</g>
<defs>
<clipPath id="clip0_1_1792">
<rect width="24" height="24" fill="white" transform="translate(6 6)"/>
</clipPath>
</defs>
</svg>
