<svg width="24" height="24" viewBox="0 0 24 24" fill="none" xmlns="http://www.w3.org/2000/svg">
<path d="M6.16895 4.8999L7.55054 4.24602L8.6245 6.57777L7.2429 7.23165L6.16895 4.8999Z" fill="#1576F7"/>
<path d="M7.47434 3.42375L5.59286 4.31313C5.20817 4.49496 5.04174 4.95851 5.22111 5.34846C5.40047 5.73842 5.85776 5.90714 6.24245 5.72531L8.12393 4.83593C8.50862 4.65411 8.67505 4.19056 8.49568 3.8006C8.31632 3.41064 7.85903 3.24193 7.47434 3.42375Z" fill="#FCA62F"/>
<path d="M8.49614 3.80035C8.67556 4.1904 8.50884 4.65372 8.12406 4.83559L6.88694 5.42038C7.27172 5.23851 7.43843 4.7752 7.25902 4.38515C7.16943 4.19036 7.01005 4.05028 6.82522 3.98208C6.64039 3.91388 6.42946 3.91734 6.2373 4.00816L7.47443 3.42336C7.66705 3.33231 7.87751 3.32909 8.06234 3.39728C8.24712 3.46548 8.40651 3.60556 8.49614 3.80035Z" fill="#F98824"/>
<path d="M8.96884 23.9881C8.59918 23.922 8.34245 23.5781 8.38013 23.1995L8.63989 20.5913L10.424 20.9102L9.78808 23.4512C9.69578 23.82 9.33845 24.0542 8.96884 23.9881Z" fill="#FCC16D"/>
<path d="M20.1842 18.6869C20.3718 18.3574 20.277 17.9369 19.9667 17.7229L17.8287 16.248L16.9229 17.8385L19.2518 18.978C19.5899 19.1434 19.9965 19.0164 20.1842 18.6869Z" fill="#FCC16D"/>
<path d="M11.0846 21.6946C15.4148 21.6946 18.9251 18.1362 18.9251 13.7467C18.9251 9.35721 15.4148 5.79883 11.0846 5.79883C6.75444 5.79883 3.24414 9.35721 3.24414 13.7467C3.24414 18.1362 6.75444 21.6946 11.0846 21.6946Z" fill="#31A7FB"/>
<path d="M18.1902 10.3883C20.0201 14.3663 18.3226 19.0952 14.3979 20.9503C14.1249 21.0793 13.8489 21.1909 13.5699 21.2855C16.9277 19.2042 18.2795 14.8527 16.5767 11.151C14.8739 7.44925 10.7165 5.70192 6.98535 6.97151C7.23615 6.81562 7.49791 6.67298 7.77088 6.54397C11.6956 4.68883 16.3601 6.40985 18.1902 10.3883Z" fill="#1C96F9"/>
<path d="M11.0848 20.213C14.6077 20.213 17.4636 17.318 17.4636 13.7469C17.4636 10.1757 14.6077 7.28076 11.0848 7.28076C7.56192 7.28076 4.70605 10.1757 4.70605 13.7469C4.70605 17.318 7.56192 20.213 11.0848 20.213Z" fill="#D9E7EB"/>
<path d="M16.866 11.0144C18.3549 14.251 16.9732 18.0981 13.7804 19.6073C13.5066 19.7367 13.2284 19.8449 12.9476 19.9323C15.5756 18.2055 16.6132 14.7364 15.252 11.7773C13.8908 8.81823 10.6021 7.39374 7.60791 8.32444C7.8545 8.16258 8.11496 8.01607 8.38873 7.88668C11.5816 6.37739 15.3771 7.77778 16.866 11.0144Z" fill="#C5D3DD"/>
<path d="M11.6186 13.3173L9.91025 9.60362C9.74942 9.25403 9.33952 9.10277 8.99465 9.26581C8.64978 9.42884 8.50058 9.84436 8.66141 10.1939L10.3697 13.9076L11.6186 13.3173Z" fill="#FB3A82"/>
<path d="M10.4008 13.4946L9.20949 16.8126C9.07546 17.1859 9.26533 17.5987 9.63358 17.7346C10.0018 17.8705 10.4091 17.678 10.5431 17.3047L11.7344 13.9867C11.2899 13.8226 10.8454 13.6587 10.4008 13.4946Z" fill="#FB3A82"/>
<path d="M11.0612 14.6746C11.5605 14.6746 11.9653 14.2643 11.9653 13.7582C11.9653 13.2521 11.5605 12.8418 11.0612 12.8418C10.562 12.8418 10.1572 13.2521 10.1572 13.7582C10.1572 14.2643 10.562 14.6746 11.0612 14.6746Z" fill="#FCA62F"/>
<path d="M15.7477 6.88568L10.4737 5.45315C9.86972 5.28908 9.51132 4.65975 9.67313 4.0475C10.019 2.73906 11.3457 1.9626 12.6365 2.31318L15.4235 3.0702C16.7143 3.42078 17.4802 4.76571 17.1344 6.07411C16.9726 6.6864 16.3517 7.04971 15.7477 6.88568Z" fill="#8DCAFC"/>
<path d="M17.1339 6.07437C17.0347 6.45033 16.762 6.73229 16.4268 6.85595C16.2159 6.9338 15.9805 6.94885 15.7472 6.88557L14.4346 6.52898C14.5875 6.57072 14.7443 6.55922 14.8924 6.50465C15.2092 6.38776 15.4858 6.07319 15.5958 5.65645C15.9408 4.35037 15.3937 3.0671 14.373 2.78467L15.4231 3.07013C16.7137 3.42095 17.4798 4.76555 17.1339 6.07437Z" fill="#64B9FC"/>
<path d="M2.90222 12.9579L5.20976 7.94166C5.47404 7.36718 5.22885 6.68433 4.66213 6.41642C3.45106 5.84393 2.01146 6.37511 1.44671 7.60277L0.227277 10.2535C-0.33748 11.4812 0.18652 12.9405 1.39759 13.513C1.96431 13.7809 2.63798 13.5324 2.90222 12.9579Z" fill="#8DCAFC"/>
<path d="M5.2098 7.94165L2.90184 12.9579C2.71015 13.3752 2.30193 13.6204 1.87518 13.6204C1.71519 13.6204 1.5523 13.5858 1.39721 13.5127C1.32452 13.4785 1.25477 13.441 1.1875 13.4004C1.21775 13.3544 1.24455 13.306 1.26799 13.2546L3.57542 8.23829C3.83976 7.66376 3.59443 6.981 3.02771 6.71305C2.83018 6.61958 2.62677 6.55583 2.42196 6.51925C2.79022 6.30269 3.21114 6.18604 3.64078 6.18604C3.98318 6.18604 4.33141 6.26019 4.66208 6.41641C5.2288 6.68437 5.47362 7.36713 5.2098 7.94165Z" fill="#64B9FC"/>
<path d="M23.6359 4.94612L20.5021 6.92525C20.3356 7.03045 20.2847 7.2526 20.3885 7.4214L20.9542 8.34192L19.5781 10.1164C19.4142 10.3278 19.6645 10.6108 19.8896 10.4686L23.0233 8.48948C23.1899 8.38428 23.2408 8.16214 23.137 7.99328L22.5713 7.07276L23.9473 5.29826C24.1113 5.08696 23.861 4.80395 23.6359 4.94612Z" fill="#FFD395"/>
<path d="M21.1113 0.0722313L18.5005 2.71874C18.3618 2.85939 18.3618 3.08745 18.5005 3.22815L19.2571 3.99505L18.3127 6.03912C18.2002 6.2826 18.5072 6.50087 18.6947 6.31076L21.3055 3.66425C21.4442 3.5236 21.4442 3.29554 21.3055 3.15484L20.549 2.38794L21.4933 0.343877C21.6058 0.10039 21.2989 -0.117873 21.1113 0.0722313Z" fill="#FFD395"/>
</svg>
