<svg width="20" height="20" viewBox="0 0 20 20" fill="none" xmlns="http://www.w3.org/2000/svg">
<g clip-path="url(#clip0_15_731)">
<path d="M19.1668 10.4C19.1668 9.76433 19.1153 9.12521 19.0053 8.49984H10.1848V12.1009H15.2359C15.0263 13.2623 14.3528 14.2897 13.3667 14.9425V17.2791H16.3801C18.1497 15.6504 19.1668 13.2451 19.1668 10.4Z" fill="#4285F4"/>
<path d="M10.1848 19.5366C12.7069 19.5366 14.8339 18.7085 16.3836 17.2791L13.3701 14.9425C12.5317 15.5129 11.4493 15.8359 10.1883 15.8359C7.74864 15.8359 5.68011 14.19 4.93791 11.9772H1.82824V14.3859C3.41572 17.5436 6.64909 19.5366 10.1848 19.5366Z" fill="#34A853"/>
<path d="M4.93449 11.9772C4.54277 10.8158 4.54277 9.55815 4.93449 8.39675V5.98804H1.82825C0.501917 8.6304 0.501908 11.7435 1.82824 14.3859L4.93449 11.9772Z" fill="#FBBC04"/>
<path d="M10.1848 4.53456C11.518 4.51394 12.8066 5.01562 13.7721 5.93649L16.442 3.26664C14.7514 1.67916 12.5076 0.806393 10.1848 0.833882C6.64909 0.833882 3.41573 2.82683 1.82825 5.98804L4.93449 8.39675C5.67325 6.18046 7.74521 4.53456 10.1848 4.53456Z" fill="#EA4335"/>
</g>
<defs>
<clipPath id="clip0_15_731">
<rect width="20" height="20" fill="white"/>
</clipPath>
</defs>
</svg>
