<svg width="24" height="24" viewBox="0 0 24 24" fill="none" xmlns="http://www.w3.org/2000/svg">
<g clip-path="url(#clip0_1_2010)">
<path d="M18.5903 15.8845L14.5374 18.0656H12.3784L12.0985 15L9.07932 15.5184C8.53932 15.6107 8.02557 15.2521 7.92666 14.7136L7.77713 13.8984L9.57291 12.6328L9.56869 12.5418L7.57791 11.7159V10.8787L6.57666 9.87746L8.57916 6.54184V3.8709L14.5374 3.4509L15.797 3.3623L18.0376 11.8729C17.8604 12.3084 17.8178 12.7936 17.9359 13.2651L18.5903 15.8845Z" fill="#FFC7B8"/>
<path d="M18.5904 15.8845L14.5376 18.0656V3.4509L15.7971 3.3623L18.0378 11.8729C17.8606 12.3084 17.8179 12.7936 17.936 13.2651L18.5904 15.8845Z" fill="#FAB096"/>
<path d="M20.593 6.26437V6.26813C20.593 8.10047 19.8491 9.83438 18.5633 11.0911C18.3327 11.3166 18.1559 11.5837 18.0378 11.873L16.227 9.37828C17.2831 8.11641 16.1155 6.25594 14.5377 6.61969L13.5852 6.84V5.49891C13.5852 4.59984 12.8563 3.87094 11.9567 3.87094H8.57938C7.93813 3.22969 7.57812 2.36063 7.57812 1.45406V0H14.3286C14.3984 0 14.4683 0.0009375 14.5377 0.00375C17.9005 0.113437 20.593 2.87437 20.593 6.26437Z" fill="#42789D"/>
<path d="M20.5929 6.26453V6.26828C20.5929 8.10063 19.849 9.83453 18.5632 11.0913C18.3326 11.3167 18.1559 11.5839 18.0378 11.8731L16.227 9.37844C17.2831 8.11656 16.1154 6.25609 14.5376 6.61984V0.00390625C17.9004 0.113594 20.5929 2.87453 20.5929 6.26453Z" fill="#335A8C"/>
<path d="M23.998 24.0002H10.4961L12.3781 18.0659L14.5372 17.3079L18.59 15.8848C21.9106 17.2146 23.9998 20.5071 23.998 24.0002Z" fill="#FF69AB"/>
<path d="M23.9984 24.0002H14.5376V17.3079L18.5904 15.8848C21.911 17.2146 24.0003 20.5071 23.9984 24.0002Z" fill="#DE5B95"/>
<path d="M5.54554 14.2656C4.78625 13.5064 4.78625 12.271 5.54554 11.5117L6.53989 12.5061C6.32896 12.7171 6.32896 13.0603 6.53989 13.2713L5.54554 14.2656Z" fill="#335A8C"/>
<path d="M3.78589 16.0255C2.05639 14.296 2.05639 11.4819 3.78589 9.75244L4.78025 10.7468C3.59905 11.928 3.59905 13.85 4.78025 15.0311L3.78589 16.0255Z" fill="#335A8C"/>
<path d="M2.02625 17.7849C-0.673465 15.0851 -0.673465 10.6924 2.02625 7.99268L3.02061 8.98704C0.869238 11.1385 0.869238 14.6391 3.02061 16.7905L2.02625 17.7849Z" fill="#335A8C"/>
</g>
<defs>
<clipPath id="clip0_1_2010">
<rect width="24" height="24" fill="white"/>
</clipPath>
</defs>
</svg>
