<svg width="40" height="40" viewBox="0 0 40 40" fill="none" xmlns="http://www.w3.org/2000/svg">
<g clip-path="url(#clip0_1_2625)">
<path d="M34.1487 5.85122C26.3471 -1.95041 13.6528 -1.95041 5.85122 5.85122C-1.95041 13.6528 -1.95041 26.3471 5.85122 34.1488C5.85255 34.1501 5.85395 34.1514 5.85536 34.1528L21.5625 21.3203L34.1528 5.85544C34.1514 5.85396 34.1501 5.85255 34.1487 5.85122Z" fill="#D2F3FF"/>
<path d="M34.1489 34.1488C41.9492 26.3485 41.9504 13.6575 34.1529 5.85547L5.85547 34.1529C13.6575 41.9504 26.3486 41.9491 34.1489 34.1488Z" fill="#B8EBFF"/>
<path d="M28.5465 9.8715L6.69114 17.279C6.24539 17.43 5.93321 17.833 5.89827 18.3023C5.86333 18.7717 6.11243 19.2164 6.53091 19.4318L15.7353 24.1693L15.766 24.2289L22.922 18.61L29.797 10.2139C29.4937 9.87603 29.0073 9.69946 28.5465 9.8715Z" fill="#4BC6FF"/>
<path d="M29.7971 10.2139L15.7661 24.2289L20.473 33.3736C20.675 33.7661 21.0786 34.0095 21.5151 34.0095C21.5441 34.0095 21.5733 34.0084 21.6025 34.0062C22.0718 33.9713 22.4748 33.6591 22.6259 33.2133L30.0333 11.358C30.1693 10.9172 30.039 10.4834 29.7971 10.2139Z" fill="#0EB9FF"/>
</g>
<defs>
<clipPath id="clip0_1_2625">
<rect width="40" height="40" fill="white"/>
</clipPath>
</defs>
</svg>
