<svg width="36" height="36" viewBox="0 0 36 36" fill="none" xmlns="http://www.w3.org/2000/svg">
<rect width="36" height="36" rx="18" fill="#FFC575"/>
<path d="M8 28C8 23.5817 11.5817 20 16 20C20.4183 20 24 23.5817 24 28H8ZM16 19C12.685 19 10 16.315 10 13C10 9.685 12.685 7 16 7C19.315 7 22 9.685 22 13C22 16.315 19.315 19 16 19ZM23.3628 21.2332C26.4482 22.0217 28.7679 24.7235 28.9836 28H26C26 25.3902 25.0002 23.0139 23.3628 21.2332ZM21.3401 18.9569C22.9728 17.4922 24 15.3661 24 13C24 11.5827 23.6314 10.2514 22.9849 9.09687C25.2753 9.55397 27 11.5746 27 14C27 16.7625 24.7625 19 22 19C21.7763 19 21.556 18.9853 21.3401 18.9569Z" fill="#EBF1F5"/>
</svg>
