<svg width="40" height="40" viewBox="0 0 40 40" fill="none" xmlns="http://www.w3.org/2000/svg">
<rect width="40" height="40" rx="20" fill="url(#paint0_linear_99_658)" fill-opacity="0.7"/>
<g clip-path="url(#clip0_99_658)">
<path d="M17 13C17 12.2044 17.3161 11.4413 17.8787 10.8787C18.4413 10.3161 19.2044 10 20 10C20.7956 10 21.5587 10.3161 22.1213 10.8787C22.6839 11.4413 23 12.2044 23 13V18C23 18.7956 22.6839 19.5587 22.1213 20.1213C21.5587 20.6839 20.7956 21 20 21C19.2044 21 18.4413 20.6839 17.8787 20.1213C17.3161 19.5587 17 18.7956 17 18V13Z" stroke="#F6F6F6" stroke-opacity="0.6" stroke-linecap="round" stroke-linejoin="round"/>
<path d="M13 18C13 19.8565 13.7375 21.637 15.0503 22.9497C16.363 24.2625 18.1435 25 20 25C21.8565 25 23.637 24.2625 24.9497 22.9497C26.2625 21.637 27 19.8565 27 18" stroke="#F6F6F6" stroke-opacity="0.6" stroke-linecap="round" stroke-linejoin="round"/>
<path d="M16 29H24" stroke="#F6F6F6" stroke-opacity="0.6" stroke-linecap="round" stroke-linejoin="round"/>
<path d="M20 25V29" stroke="#F6F6F6" stroke-opacity="0.6" stroke-linecap="round" stroke-linejoin="round"/>
</g>
<defs>
<linearGradient id="paint0_linear_99_658" x1="20" y1="0" x2="20" y2="40" gradientUnits="userSpaceOnUse">
<stop stop-color="#458CF7"/>
<stop offset="1" stop-color="#9A3FEF"/>
</linearGradient>
<clipPath id="clip0_99_658">
<rect width="24" height="24" fill="white" transform="translate(8 8)"/>
</clipPath>
</defs>
</svg>
