<svg width="36" height="36" viewBox="0 0 36 36" fill="none" xmlns="http://www.w3.org/2000/svg">
<rect width="36" height="36" rx="18" fill="#6A9ABD"/>
<g clip-path="url(#clip0_1_1784)">
<path d="M28 19.478V24C28 24.7956 27.6839 25.5587 27.1213 26.1213C26.5587 26.6839 25.7956 27 25 27H11C10.2044 27 9.44129 26.6839 8.87868 26.1213C8.31607 25.5587 8 24.7956 8 24V19.478L8.553 19.755C11.4839 21.2313 14.72 22.0001 18.0017 21.9998C21.2835 21.9994 24.5194 21.2299 27.45 19.753L28 19.478ZM20 8C20.7956 8 21.5587 8.31607 22.1213 8.87868C22.6839 9.44129 23 10.2044 23 11V12H25C25.7956 12 26.5587 12.3161 27.1213 12.8787C27.6839 13.4413 28 14.2044 28 15V17.242L26.553 17.966C23.964 19.271 21.1107 19.9662 18.2116 19.9984C15.3124 20.0307 12.4444 19.3991 9.827 18.152L9.18 17.832L8 17.242V15C8 14.2044 8.31607 13.4413 8.87868 12.8787C9.44129 12.3161 10.2044 12 11 12H13V11C13 10.2044 13.3161 9.44129 13.8787 8.87868C14.4413 8.31607 15.2044 8 16 8H20ZM18 16C17.7348 16 17.4804 16.1054 17.2929 16.2929C17.1054 16.4804 17 16.7348 17 17C16.9993 17.1313 17.0246 17.2615 17.0742 17.3831C17.1239 17.5046 17.197 17.6152 17.2894 17.7086C17.3818 17.8019 17.4916 17.8761 17.6127 17.927C17.7338 17.9778 17.8637 18.0043 17.995 18.005C18.1263 18.0057 18.2565 17.9804 18.3781 17.9308C18.4996 17.8811 18.6102 17.808 18.7036 17.7156C18.7969 17.6232 18.8711 17.5134 18.922 17.3923C18.9728 17.2712 18.9993 17.1413 19 17.01C19 16.448 18.552 16 18 16ZM20 10H16C15.7348 10 15.4804 10.1054 15.2929 10.2929C15.1054 10.4804 15 10.7348 15 11V12H21V11C21 10.7348 20.8946 10.4804 20.7071 10.2929C20.5196 10.1054 20.2652 10 20 10Z" fill="#F6F6F6" fill-opacity="0.9"/>
</g>
<defs>
<clipPath id="clip0_1_1784">
<rect width="24" height="24" fill="white" transform="translate(6 6)"/>
</clipPath>
</defs>
</svg>
